<?xml version="1.0" encoding="UTF-8" standalone="no"?>

<svg xmlns="http://www.w3.org/2000/svg" xmlns:xlink="http://www.w3.org/1999/xlink" width="273px" height="85px" viewBox="0 0 273 85">
						<defs>
						<filter id="Filter_1">
							<feFlood flood-color="rgb(6, 124, 184)" flood-opacity="1" result="floodOut"></feFlood>
							<feComposite operator="atop" in="floodOut" in2="SourceGraphic" result="compOut"></feComposite>
							<feBlend mode="normal" in="compOut" in2="SourceGraphic"></feBlend>
						</filter>
						<filter filterUnits="userSpaceOnUse" id="Filter_2" x="15px" y="4px" width="20px" height="81px">
							<feOffset in="SourceAlpha" dx="0" dy="2"></feOffset>
							<feGaussianBlur result="blurOut" stdDeviation="2"></feGaussianBlur>
							<feFlood flood-color="rgb(0, 0, 0)" result="floodOut"></feFlood>
							<feComposite operator="atop" in="floodOut" in2="blurOut"></feComposite>
							<feComponentTransfer><feFuncA type="linear" slope="0.07"></feFuncA></feComponentTransfer>
							<feMerge>
							<feMergeNode></feMergeNode>
							<feMergeNode in="SourceGraphic"></feMergeNode>
						</feMerge>
						</filter>

						</defs>
						<g filter="url(#Filter_1)">
						<path fill-rule="evenodd" fill="rgb(255, 255, 255)" d="M272.997,69.323 L272.997,79.999 L231.462,79.999 L231.462,4.726 L272.997,4.726 L272.997,15.403 L242.821,15.403 L242.821,33.490 L272.119,33.490 L272.119,44.167 L242.821,44.167 L242.821,69.323 L272.997,69.323 ZM206.259,79.999 L184.761,49.188 L182.713,49.188 L182.713,79.999 L171.355,79.999 L171.355,4.726 L184.663,4.726 C194.608,4.726 201.790,6.596 206.210,10.333 C211.85,14.494 213.523,19.986 213.523,26.811 C213.523,32.142 211.995,36.725 208.940,40.559 C205.885,44.395 201.855,46.848 196.850,47.921 L220.153,79.999 L206.259,79.999 ZM202.457,26.957 C202.457,19.255 197.224,15.403 186.759,15.403 L182.713,15.403 L182.713,39.292 L186.321,39.292 C197.77,39.292 202.457,35.180 202.457,26.957 ZM141.618,61.718 L109.394,61.718 L101.9,79.999 L88.773,79.999 L126.18,0.1 L161.946,79.999 L149.515,79.999 L141.618,61.718 ZM125.823,25.446 L114.123,51.41 L136.986,51.41 L125.823,25.446 ZM72.199,79.999 L50.700,49.188 L48.653,49.188 L48.653,79.999 L37.294,79.999 L37.294,4.726 L50.603,4.726 C60.548,4.726 67.730,6.596 72.150,10.333 C77.25,14.494 79.462,19.986 79.462,26.811 C79.462,32.142 77.934,36.725 74.880,40.559 C71.825,44.395 67.794,46.848 62.790,47.921 L86.92,79.999 L72.199,79.999 ZM68.396,26.957 C68.396,19.255 63.163,15.403 52.699,15.403 L48.653,15.403 L48.653,39.292 L52.260,39.292 C63.17,39.292 68.396,35.180 68.396,26.957 Z"></path>
						<path fill-rule="evenodd" fill="rgb(148, 215, 251)" d="M2.362,55.690 L2.761,55.690 L2.761,79.653 L2.362,79.653 L2.362,55.690 Z"></path>
						<path fill-rule="evenodd" fill="rgb(147, 214, 246)" d="M5.320,21.828 C4.706,22.444 3.969,22.752 3.109,22.752 C2.243,22.752 1.508,22.443 0.905,21.824 C0.299,21.203 0.3,20.452 0.3,19.574 C0.3,18.796 0.265,18.98 0.804,17.479 C1.399,16.798 2.179,16.457 3.144,16.457 C3.991,16.457 4.719,16.768 5.328,17.390 C5.936,18.8 6.240,18.752 6.240,19.620 C6.240,20.478 5.933,21.214 5.320,21.828 ZM4.731,18.21 C4.299,17.590 3.766,17.374 3.132,17.374 C2.466,17.374 1.919,17.598 1.490,18.45 C1.61,18.489 0.847,19.3 0.847,19.585 C0.847,20.217 1.65,20.750 1.502,21.184 C1.944,21.619 2.482,21.836 3.116,21.836 C3.758,21.836 4.297,21.621 4.731,21.192 C5.168,20.766 5.386,20.238 5.386,19.609 C5.386,18.982 5.168,18.453 4.731,18.21 ZM5.679,14.338 C5.346,14.728 4.906,14.923 4.360,14.923 C3.934,14.923 3.567,14.801 3.261,14.556 C2.954,14.312 2.758,13.990 2.672,13.589 L0.106,15.453 L0.106,14.342 L2.570,12.622 L2.570,12.458 L0.106,12.458 L0.106,11.549 L6.127,11.549 L6.127,12.614 C6.127,13.410 5.978,13.984 5.679,14.338 ZM5.273,12.458 L3.362,12.458 L3.362,12.747 C3.362,13.607 3.691,14.38 4.349,14.38 C4.965,14.38 5.273,13.619 5.273,12.782 L5.273,12.458 ZM5.624,9.695 C5.286,10.41 4.860,10.214 4.345,10.214 C3.794,10.214 3.357,10.29 3.34,9.660 C2.712,9.291 2.551,8.793 2.551,8.166 L2.551,7.745 L0.106,7.745 L0.106,6.836 L6.127,6.836 L6.127,7.866 C6.127,8.371 6.92,8.751 6.22,9.9 C5.952,9.269 5.819,9.498 5.624,9.695 ZM5.289,7.745 L3.393,7.745 L3.393,8.85 C3.393,8.919 3.714,9.336 4.357,9.336 C4.978,9.336 5.289,8.906 5.289,8.46 L5.289,7.745 ZM5.351,28.19 C4.784,28.640 4.39,28.951 3.116,28.951 C2.191,28.951 1.442,28.627 0.870,27.980 C0.584,27.655 0.385,27.314 0.273,26.958 C0.161,26.625 0.106,26.153 0.106,25.542 L0.106,24.294 L6.127,24.294 L6.127,25.558 C6.127,26.164 6.67,26.642 5.948,26.993 C5.831,27.370 5.632,27.712 5.351,28.19 ZM5.273,25.203 L0.960,25.203 L0.960,25.613 C0.960,26.21 1.3,26.360 1.88,26.631 C1.179,26.901 1.324,27.145 1.521,27.364 C1.929,27.811 2.461,28.35 3.116,28.35 C3.777,28.35 4.312,27.814 4.723,27.372 C5.90,26.974 5.273,26.387 5.273,25.613 L5.273,25.203 ZM0.683,31.86 C1.94,30.691 1.616,30.493 2.251,30.493 L6.127,30.493 L6.127,31.402 L2.500,31.402 C1.983,31.402 1.604,31.486 1.365,31.656 C1.19,31.908 0.847,32.263 0.847,32.720 C0.847,33.180 1.19,33.537 1.365,33.789 C1.597,33.958 1.975,34.42 2.500,34.42 L6.127,34.42 L6.127,34.951 L2.251,34.951 C1.616,34.951 1.94,34.754 0.683,34.358 C0.225,33.914 0.3,33.368 0.3,32.720 C0.3,32.73 0.225,31.528 0.683,31.86 ZM0.897,37.402 C1.503,36.796 2.234,36.493 3.89,36.493 C3.856,36.493 4.540,36.747 5.140,37.254 C5.876,37.878 6.244,38.685 6.244,39.676 C6.244,40.217 6.97,40.739 5.803,41.244 L4.727,41.244 C5.166,40.718 5.386,40.175 5.386,39.613 C5.386,38.995 5.164,38.473 4.719,38.49 C4.277,37.623 3.736,37.410 3.97,37.410 C2.465,37.410 1.932,37.623 1.498,38.49 C1.64,38.476 0.847,38.998 0.847,39.617 C0.847,39.937 0.899,40.209 1.3,40.432 C1.55,40.557 1.125,40.687 1.213,40.820 C1.302,40.954 1.408,41.95 1.533,41.244 L0.437,41.244 C0.143,40.724 0.3,40.178 0.3,39.606 C0.3,38.745 0.297,38.10 0.897,37.402 ZM5.273,42.158 L6.127,42.158 L6.127,45.832 L5.273,45.832 L5.273,44.451 L0.106,44.451 L0.106,43.542 L5.273,43.542 L5.273,42.158 Z"></path>
						<g filter="url(#Filter_2)">
						<path fill-rule="evenodd" fill="rgb(255, 255, 255)" d="M19.586,17.292 L18.264,16.142 C18.422,15.797 18.451,15.553 18.451,15.236 L18.451,7.660 C18.451,7.143 18.365,6.467 18.278,6.79 L20.478,6.79 C20.406,6.625 20.348,7.129 20.348,7.660 L20.348,14.920 C22.620,14.259 25.725,12.476 27.507,10.291 L28.513,11.873 C26.601,14.173 23.698,15.826 20.406,16.918 C20.219,16.976 19.903,17.77 19.586,17.292 ZM26.400,26.754 C26.788,26.754 27.565,26.711 27.809,26.639 L28.916,27.674 C28.786,27.861 28.499,28.192 28.384,28.393 C27.723,29.471 26.400,31.254 25.35,32.231 L23.568,31.67 C24.704,30.377 25.782,29.155 26.141,28.465 L18.882,28.465 C18.293,28.465 17.833,28.493 17.172,28.565 L17.172,26.610 C17.703,26.697 18.293,26.754 18.882,26.754 L26.400,26.754 ZM23.223,29.557 C23.223,33.7 23.151,35.854 19.371,37.910 L17.747,36.573 C18.192,36.414 18.695,36.184 19.198,35.796 C20.981,34.574 21.297,33.108 21.297,30.808 C21.297,30.377 21.268,30.3 21.211,29.557 L23.223,29.557 ZM21.570,45.517 L23.310,45.517 L23.310,46.595 L28.801,46.595 L28.801,48.148 L26.242,48.148 C26.12,48.565 25.796,48.953 25.610,49.269 L28.470,49.269 L28.470,57.61 C28.470,57.909 28.298,58.369 27.737,58.642 C27.176,58.901 26.371,58.929 25.250,58.929 C25.178,58.527 24.963,57.909 24.761,57.478 L21.254,57.478 L21.254,58.268 L19.745,58.268 L19.745,53.754 L25.380,53.754 L25.380,57.319 C25.883,57.334 26.328,57.334 26.501,57.334 C26.745,57.334 26.817,57.262 26.817,57.46 L26.817,52.633 C26.601,53.64 26.242,53.208 25.667,53.208 L24.503,53.208 C23.223,53.208 22.965,52.820 22.965,51.655 L22.965,50.735 L21.800,50.735 C21.671,52.331 21.139,53.251 18.954,53.754 C18.853,53.467 18.595,53.35 18.336,52.748 L18.336,58.901 L16.712,58.901 L16.712,49.269 L19.270,49.269 C19.155,48.910 18.983,48.478 18.825,48.148 L16.223,48.148 L16.223,46.595 L21.570,46.595 L21.570,45.517 ZM23.841,55.19 L21.254,55.19 L21.254,56.227 L23.841,56.227 L23.841,55.19 ZM24.431,51.641 C24.431,51.943 24.474,51.986 24.718,51.986 L25.466,51.986 C25.710,51.986 25.768,51.885 25.811,51.195 C26.26,51.339 26.458,51.497 26.817,51.598 L26.817,50.735 L24.431,50.735 L24.431,51.641 ZM18.336,50.735 L18.336,52.547 C19.874,52.245 20.205,51.727 20.305,50.735 L18.336,50.735 ZM20.665,48.148 C20.851,48.521 21.38,48.953 21.125,49.269 L23.726,49.269 C23.899,48.924 24.100,48.521 24.258,48.148 L20.665,48.148 ZM21.829,79.274 L20.118,79.274 L20.118,78.627 L17.977,78.627 L17.977,79.346 L16.367,79.346 L16.367,72.876 L21.829,72.876 L21.829,79.274 ZM20.118,74.515 L17.977,74.515 L17.977,76.988 L20.118,76.988 L20.118,74.515 ZM18.336,66.479 L26.760,66.479 L26.760,71.683 L18.336,71.683 L18.336,66.479 ZM19.989,70.59 L25.20,70.59 L25.20,68.118 L19.989,68.118 L19.989,70.59 ZM28.700,79.288 L26.975,79.288 L26.975,78.627 L24.690,78.627 L24.690,79.346 L23.51,79.346 L23.51,72.876 L28.700,72.876 L28.700,79.288 ZM26.975,74.515 L24.690,74.515 L24.690,76.988 L26.975,76.988 L26.975,74.515 Z"></path>
						</g>
						</g>
						</svg>