<?xml version="1.0" encoding="UTF-8" standalone="no"?>

<svg xmlns="http://www.w3.org/2000/svg" xmlns:xlink="http://www.w3.org/1999/xlink" width="184px" height="78px" viewBox="0 0 184 78">
						<defs>
						<filter id="Filter_0">
							<feFlood flood-color="rgb(75, 187, 248)" flood-opacity="1" result="floodOut"></feFlood>
							<feComposite operator="atop" in="floodOut" in2="SourceGraphic" result="compOut"></feComposite>
							<feBlend mode="normal" in="compOut" in2="SourceGraphic"></feBlend>
						</filter>

						</defs>
						<g filter="url(#Filter_0)">
						<path fill-rule="evenodd" fill="rgb(255, 255, 255)" d="M166.703,10.749 L166.703,75.765 L155.318,75.765 L155.318,10.749 L137.972,10.749 L137.972,0.3 L184.0,0.3 L184.0,10.749 L166.703,10.749 ZM113.373,0.3 L124.758,0.3 L124.758,75.765 L113.373,75.765 L113.373,0.3 ZM80.907,40.386 L48.365,40.386 L48.365,75.765 L36.980,75.765 L36.980,0.3 L48.365,0.3 L48.365,29.640 L80.907,29.640 L80.907,0.3 L92.292,0.3 L92.292,75.765 L80.907,75.765 L80.907,40.386 Z"></path>
						<path fill-rule="evenodd" fill="rgb(147, 214, 246)" d="M2.368,51.298 L2.768,51.298 L2.768,75.417 L2.368,75.417 L2.368,51.298 Z"></path>
						<path fill-rule="evenodd" fill="rgb(147, 214, 246)" d="M5.332,17.215 C4.717,17.835 3.978,18.146 3.116,18.146 C2.248,18.146 1.512,17.834 0.907,17.211 C0.300,16.586 0.3,15.831 0.3,14.946 C0.3,14.164 0.266,13.461 0.806,12.838 C1.402,12.153 2.184,11.810 3.151,11.810 C4.0,11.810 4.730,12.123 5.340,12.748 C5.950,13.371 6.255,14.119 6.255,14.993 C6.255,15.857 5.947,16.598 5.332,17.215 ZM4.742,13.384 C4.309,12.950 3.775,12.732 3.139,12.732 C2.472,12.732 1.923,12.957 1.494,13.408 C1.64,13.855 0.849,14.372 0.849,14.958 C0.849,15.594 1.67,16.130 1.505,16.568 C1.948,17.5 2.488,17.223 3.124,17.223 C3.767,17.223 4.307,17.7 4.742,16.575 C5.180,16.146 5.399,15.615 5.399,14.982 C5.399,14.351 5.180,13.818 4.742,13.384 ZM5.692,9.677 C5.358,10.69 4.918,10.266 4.370,10.266 C3.943,10.266 3.576,10.142 3.268,9.897 C2.961,9.650 2.764,9.326 2.678,8.923 L0.106,10.799 L0.106,9.681 L2.576,7.949 L2.576,7.785 L0.106,7.785 L0.106,6.870 L6.141,6.870 L6.141,7.942 C6.141,8.742 5.991,9.321 5.692,9.677 ZM5.285,7.785 L3.370,7.785 L3.370,8.75 C3.370,8.941 3.699,9.374 4.359,9.374 C4.976,9.374 5.285,8.953 5.285,8.110 L5.285,7.785 ZM5.637,5.4 C5.298,5.352 4.871,5.526 4.355,5.526 C3.802,5.526 3.365,5.340 3.41,4.968 C2.718,4.597 2.557,4.96 2.557,3.465 L2.557,3.41 L0.106,3.41 L0.106,2.126 L6.141,2.126 L6.141,3.163 C6.141,3.670 6.106,4.54 6.36,4.313 C5.965,4.575 5.832,4.805 5.637,5.4 ZM5.301,3.41 L3.401,3.41 L3.401,3.383 C3.401,4.223 3.723,4.643 4.367,4.643 C4.989,4.643 5.301,4.209 5.301,3.343 L5.301,3.41 ZM5.363,23.447 C4.795,24.72 4.49,24.385 3.124,24.385 C2.196,24.385 1.445,24.59 0.872,23.407 C0.585,23.80 0.386,22.737 0.274,22.379 C0.162,22.44 0.106,21.569 0.106,20.954 L0.106,19.698 L6.141,19.698 L6.141,20.970 C6.141,21.579 6.81,22.61 5.961,22.414 C5.844,22.794 5.645,23.138 5.363,23.447 ZM5.285,20.612 L0.962,20.612 L0.962,21.25 C0.962,21.435 1.5,21.777 1.91,22.49 C1.182,22.321 1.327,22.567 1.525,22.787 C1.934,23.237 2.467,23.462 3.124,23.462 C3.785,23.462 4.322,23.240 4.734,22.795 C5.101,22.395 5.285,21.804 5.285,21.25 L5.285,20.612 ZM0.684,26.534 C1.96,26.136 1.620,25.937 2.256,25.937 L6.141,25.937 L6.141,26.852 L2.506,26.852 C1.987,26.852 1.608,26.937 1.368,27.107 C1.22,27.361 0.849,27.718 0.849,28.178 C0.849,28.642 1.22,29.0 1.368,29.254 C1.600,29.424 1.979,29.509 2.506,29.509 L6.141,29.509 L6.141,30.424 L2.256,30.424 C1.620,30.424 1.96,30.225 0.684,29.827 C0.226,29.380 0.3,28.830 0.3,28.178 C0.3,27.527 0.226,26.979 0.684,26.534 ZM0.899,32.891 C1.507,32.281 2.239,31.976 3.96,31.976 C3.865,31.976 4.550,32.231 5.152,32.741 C5.890,33.370 6.259,34.182 6.259,35.179 C6.259,35.724 6.111,36.250 5.817,36.757 L4.738,36.757 C5.178,36.229 5.399,35.682 5.399,35.116 C5.399,34.494 5.176,33.969 4.730,33.542 C4.287,33.113 3.745,32.898 3.104,32.898 C2.471,32.898 1.936,33.113 1.501,33.542 C1.66,33.971 0.849,34.497 0.849,35.120 C0.849,35.442 0.901,35.716 1.5,35.941 C1.57,36.66 1.127,36.197 1.216,36.331 C1.305,36.466 1.411,36.608 1.537,36.757 L0.438,36.757 C0.144,36.234 0.3,35.684 0.3,35.109 C0.3,34.242 0.297,33.503 0.899,32.891 ZM5.285,37.677 L6.141,37.677 L6.141,41.375 L5.285,41.375 L5.285,39.986 L0.106,39.986 L0.106,39.71 L5.285,39.71 L5.285,37.677 Z"></path>
						<path fill-rule="evenodd" fill="rgb(255, 255, 255)" d="M20.237,12.187 C19.12,11.970 18.321,11.304 18.321,10.89 L18.321,2.449 C18.321,2.29 18.263,1.320 18.205,0.973 L20.280,0.973 C20.223,1.407 20.179,2.44 20.179,2.449 L20.179,5.82 C21.851,4.677 23.810,4.41 25.64,3.505 C25.554,3.303 26.29,3.86 26.591,2.753 L27.340,4.533 C26.793,4.764 26.173,5.25 25.712,5.198 C24.286,5.748 21.995,6.457 20.179,6.920 L20.179,9.525 C20.179,10.132 20.453,10.291 21.73,10.407 C21.490,10.479 22.67,10.494 22.686,10.494 C24.156,10.494 26.418,10.320 27.571,10.16 L27.571,12.57 C26.245,12.259 24.156,12.346 22.571,12.346 C21.678,12.346 20.828,12.288 20.237,12.187 ZM21.620,47.715 L23.363,47.715 L23.363,48.800 L28.867,48.800 L28.867,50.363 L26.303,50.363 C26.72,50.782 25.856,51.173 25.669,51.491 L28.536,51.491 L28.536,59.334 C28.536,60.187 28.363,60.650 27.801,60.925 C27.239,61.186 26.432,61.215 25.309,61.215 C25.237,60.810 25.20,60.187 24.819,59.753 L21.303,59.753 L21.303,60.549 L19.790,60.549 L19.790,56.6 L25.438,56.6 L25.438,59.594 C25.943,59.609 26.389,59.609 26.562,59.609 C26.807,59.609 26.879,59.536 26.879,59.319 L26.879,54.877 C26.663,55.311 26.303,55.456 25.726,55.456 L24.559,55.456 C23.277,55.456 23.18,55.65 23.18,53.893 L23.18,52.967 L21.851,52.967 C21.721,54.573 21.188,55.499 18.998,56.6 C18.897,55.716 18.638,55.282 18.378,54.993 L18.378,61.186 L16.750,61.186 L16.750,51.491 L19.315,51.491 C19.200,51.130 19.27,50.696 18.868,50.363 L16.260,50.363 L16.260,48.800 L21.620,48.800 L21.620,47.715 ZM23.897,57.279 L21.303,57.279 L21.303,58.495 L23.897,58.495 L23.897,57.279 ZM24.487,53.879 C24.487,54.183 24.531,54.226 24.775,54.226 L25.525,54.226 C25.770,54.226 25.827,54.125 25.871,53.430 C26.87,53.575 26.519,53.734 26.879,53.835 L26.879,52.967 L24.487,52.967 L24.487,53.879 ZM18.378,52.967 L18.378,54.790 C19.920,54.487 20.251,53.966 20.352,52.967 L18.378,52.967 ZM20.712,50.363 C20.900,50.739 21.87,51.173 21.173,51.491 L23.781,51.491 C23.954,51.144 24.156,50.739 24.314,50.363 L20.712,50.363 ZM21.879,77.61 L20.165,77.61 L20.165,76.409 L18.18,76.409 L18.18,77.133 L16.404,77.133 L16.404,70.622 L21.879,70.622 L21.879,77.61 ZM20.165,72.271 L18.18,72.271 L18.18,74.760 L20.165,74.760 L20.165,72.271 ZM18.378,64.183 L26.821,64.183 L26.821,69.421 L18.378,69.421 L18.378,64.183 ZM20.35,67.786 L25.78,67.786 L25.78,65.832 L20.35,65.832 L20.35,67.786 ZM28.767,77.75 L27.38,77.75 L27.38,76.409 L24.747,76.409 L24.747,77.133 L23.104,77.133 L23.104,70.622 L28.767,70.622 L28.767,77.75 ZM27.38,72.271 L24.747,72.271 L24.747,74.760 L27.38,74.760 L27.38,72.271 ZM20.914,18.830 C21.289,19.554 21.951,21.232 22.211,22.28 L20.482,22.679 C20.266,21.927 19.574,20.60 19.214,19.438 L20.914,18.830 ZM19.848,32.752 L22.24,32.752 C21.966,33.244 21.894,33.866 21.894,34.459 L21.894,36.499 C23.781,37.64 26.476,38.62 27.744,38.684 L26.951,40.638 C25.510,39.885 23.421,39.75 21.894,38.554 C21.908,40.290 21.908,41.998 21.908,42.519 C21.908,42.924 21.966,43.908 22.38,44.486 L19.848,44.486 C19.920,43.937 19.978,43.83 19.978,42.519 L19.978,34.459 C19.978,33.953 19.934,33.244 19.848,32.752 ZM24.12,18.150 C24.271,18.758 24.963,20.581 25.165,21.218 L23.479,21.811 C23.277,21.88 22.672,19.438 22.326,18.715 L24.12,18.150 ZM27.124,18.527 L29.84,19.76 L28.752,20.118 C28.378,21.551 27.859,22.998 26.937,24.227 C25.654,25.935 24.26,26.962 22.441,27.599 L20.972,26.65 C22.441,25.660 24.257,24.748 25.409,23.272 C26.346,22.72 26.966,20.263 27.124,18.527 Z"></path>
						</g>
</svg>