<svg xmlns="http://www.w3.org/2000/svg" width="11.134" height="15" viewBox="0 0 11.134 15"><path d="M1298.764,957.684a6.887,6.887,0,0,1-2-1.036,12.311,12.311,0,0,1-3.289-3.615,15.076,15.076,0,0,1-1.86-4.534,6.7,6.7,0,0,1-.161-2.491,4,4,0,0,1,1.7-2.888,1.817,1.817,0,0,1,1.836-.168.806.806,0,0,1,.458.5,1.471,1.471,0,0,1,.073.294c.1.787.189,1.574.271,2.362a2.453,2.453,0,0,1-.013.58,1.151,1.151,0,0,1-.669.818,3.721,3.721,0,0,0-.464.3.947.947,0,0,0-.375,1,8.614,8.614,0,0,0,.346,1.094,8.95,8.95,0,0,0,1.43,2.553c.344.412.727.791,1.1,1.178a1.4,1.4,0,0,0,.268.191.9.9,0,0,0,1.056-.016,4.97,4.97,0,0,0,.481-.393c.126-.109.24-.233.368-.342a.757.757,0,0,1,1.059-.048c.3.22.573.468.847.717.292.267.572.549.856.826.06.058.115.121.17.185a1.046,1.046,0,0,1,.153,1.23,2.918,2.918,0,0,1-1.134,1.39,3.358,3.358,0,0,1-1.979.387C1299.093,957.745,1298.9,957.705,1298.764,957.684Z" transform="translate(-1291.398 -942.778)" fill="#333"/></svg>