<svg xmlns="http://www.w3.org/2000/svg" width="17" height="17" viewBox="0 0 17 17"><g transform="translate(-1158 -1416)"><rect width="17" height="17" transform="translate(1158 1416)" fill="#f5f5f5"/><path d="M574.893,0h5.935a.8.8,0,0,0,.15.062,2.579,2.579,0,0,1,2.178,2.588q.01,3.843,0,7.686a2.039,2.039,0,0,1-.864,1.714,7.6,7.6,0,0,1-.95.507L582.961,15h-1.467c-.2-.318-.385-.642-.6-.948a.4.4,0,0,0-.29-.1q-2.744-.009-5.488,0a.426.426,0,0,0-.308.129c-.21.3-.391.611-.583.92h-1.467l1.648-2.486a2.262,2.262,0,0,1-1.844-2.445q0-3.728,0-7.456A2.589,2.589,0,0,1,574.291.169C574.487.1,574.692.056,574.893,0Zm2.972,6.792c.967,0,1.933,0,2.9,0,.53,0,.758-.227.762-.746q.008-1.15,0-2.3c0-.5-.23-.734-.739-.735q-2.933-.008-5.866,0c-.5,0-.724.239-.727.745,0,.744,0,1.488,0,2.232,0,.588.215.8.805.8C575.954,6.795,576.909,6.793,577.865,6.792Zm2.282-5.6h-4.562v.74h4.562Zm.26,12.13a4.125,4.125,0,0,1-.24-.389.7.7,0,0,0-.765-.417c-1.03.028-2.062.01-3.093.01a.866.866,0,0,0-.919.8Zm1.241-3.047a.726.726,0,0,0-.7-.735.745.745,0,0,0-.72.727.733.733,0,0,0,.7.713A.713.713,0,0,0,581.647,10.272Zm-7.576-.024a.714.714,0,0,0,.7.73.734.734,0,0,0,.721-.722.752.752,0,0,0-.7-.718A.723.723,0,0,0,574.071,10.247Z" transform="translate(588.639 1417)" fill="#555"/></g></svg>