<svg xmlns="http://www.w3.org/2000/svg" width="90" height="90" viewBox="0 0 90 90"><g transform="translate(-233 -652)"><g transform="translate(233 652)" fill="#fff" stroke="#333" stroke-width="3"><circle cx="45" cy="45" r="45" stroke="none"/><circle cx="45" cy="45" r="43.5" fill="none"/></g><g transform="translate(239 658)" fill="#fff" stroke="#333" stroke-width="1"><circle cx="39" cy="39" r="39" stroke="none"/><circle cx="39" cy="39" r="38.5" fill="none"/></g><path d="M4.284,7.938q-1.428,0-1.428-.483T4.242,6.72Q10.29,5.67,10.29,0q0-4.116-5.754-7.014-2.1-1.05-2.1-2.31a12.375,12.375,0,0,1,1.3-5.25A2.729,2.729,0,0,1,5.25-15.96a27.388,27.388,0,0,1,6.132-1.47h.042q.462,0,.462.714a3.706,3.706,0,0,1-.672,1.806,2.452,2.452,0,0,1-1.47,1.26A30.92,30.92,0,0,1,4.62-13.1q-.42,0-.756,1.26a.585.585,0,0,0-.042.252q0,.546.84,1.008A33.072,33.072,0,0,1,11.046-6.3a9.4,9.4,0,0,1,1.806,2.52,6.675,6.675,0,0,1,.8,3.066,7.68,7.68,0,0,1-2.961,6.237A9.937,9.937,0,0,1,4.284,7.938Z" transform="translate(270.564 701.43)" fill="#333"/></g></svg>