<svg xmlns="http://www.w3.org/2000/svg" width="90" height="90" viewBox="0 0 90 90"><g transform="translate(-233 -652)"><g transform="translate(233 652)" fill="#fff" stroke="#333" stroke-width="3"><circle cx="45" cy="45" r="45" stroke="none"/><circle cx="45" cy="45" r="43.5" fill="none"/></g><g transform="translate(239 658)" fill="none" stroke="#333" stroke-width="1"><circle cx="39" cy="39" r="39" stroke="none"/><circle cx="39" cy="39" r="38.5" fill="none"/></g><path d="M15.246.168,12.516.084Q9.744,0,8.316,0,4.746,0,2.394.084L1.218.126Q.924.126.924-.21a.8.8,0,0,1,.294-.5Q2.9-2.394,3.78-3.108,9.492-7.77,9.492-11.214a3.574,3.574,0,0,0-.756-2.373,2.451,2.451,0,0,0-1.974-.9A6.214,6.214,0,0,0,1.89-12.474a.832.832,0,0,1-.567.294q-.273,0-.273-.378a1.906,1.906,0,0,1,.231-.84,6.157,6.157,0,0,1,.8-1.134,10.613,10.613,0,0,1,1.323-1.3A6.889,6.889,0,0,1,7.98-17.346a3.84,3.84,0,0,1,3.15,1.533A5.633,5.633,0,0,1,12.348-12.2a6.612,6.612,0,0,1-1.722,4.179A38.259,38.259,0,0,1,7.875-5.187Q5.964-3.36,5.607-3.108t.147.336l.168.042h6.51a3.989,3.989,0,0,0,2.247-.714,4.753,4.753,0,0,0,1.659-1.932.862.862,0,0,1,.8-.42q.168,0,.168.21a17.227,17.227,0,0,1-.714,2.2,10.655,10.655,0,0,0-.714,2.562.975.975,0,0,1-.252.777A.735.735,0,0,1,15.246.168Z" transform="translate(270.076 705.346)" fill="#333"/></g></svg>