<svg xmlns="http://www.w3.org/2000/svg" width="90" height="90" viewBox="0 0 90 90"><g transform="translate(-233 -652)"><g transform="translate(233 652)" fill="#fff" stroke="#333" stroke-width="3"><circle cx="45" cy="45" r="45" stroke="none"/><circle cx="45" cy="45" r="43.5" fill="none"/></g><g transform="translate(239 658)" fill="#fff" stroke="#333" stroke-width="1"><circle cx="39" cy="39" r="39" stroke="none"/><circle cx="39" cy="39" r="38.5" fill="none"/></g><path d="M11.172-4.368q.5,0,.5-.336v-7.1q0-.084-.168-.105a.288.288,0,0,0-.252.063q-2.268,2.31-6.384,7.1-.252.378,0,.378ZM11.046-2.1l-9.618.294Q.882-1.806.882-2t.651-.945Q2.184-3.7,13.062-15.834l.63-.756q.84-1.092,1.008-1.092h.042q.126,0,.126.5L14.7-4.578q0,.252.42.273t1.26.021q.84,0,2.688-.084.462,0,.462.294A2.707,2.707,0,0,1,19.194-2.9q-.336.672-.546.672L16.59-2.268q-1.848,0-1.848.336V5.586q0,.672-1.029,1.344a3.483,3.483,0,0,1-1.407.672q-.63,0-.63-.546V-1.722q0-.168-.273-.273A1.35,1.35,0,0,0,11.046-2.1Z" transform="translate(267.118 701.682)" fill="#333"/></g></svg>