<svg xmlns="http://www.w3.org/2000/svg" width="90" height="90" viewBox="0 0 90 90"><g transform="translate(-233 -652)"><g transform="translate(233 652)" fill="none" stroke="#333" stroke-width="3"><circle cx="45" cy="45" r="45" stroke="none"/><circle cx="45" cy="45" r="43.5" fill="none"/></g><g transform="translate(239 658)" fill="#fff" stroke="#333" stroke-width="1"><circle cx="39" cy="39" r="39" stroke="none"/><circle cx="39" cy="39" r="38.5" fill="none"/></g><path d="M6.132-.084l-4.62.21Q1.05.126,1.05-.4t.462-.525q2.226-.168,2.772-.924a1.713,1.713,0,0,0,.294-1.008v-11.13A1.8,1.8,0,0,0,4.032-15.5a1.59,1.59,0,0,0-.756-.378l-.42-.084a6.576,6.576,0,0,0-.924-.168q-.294,0-.294-.462t.294-.462l4.2.126,4.074-.126q.336,0,.336.42a.45.45,0,0,1-.336.5,4.2,4.2,0,0,1-.567.1,4.028,4.028,0,0,0-.63.126,5.035,5.035,0,0,0-.5.21,1.154,1.154,0,0,0-.441.315,3.007,3.007,0,0,0-.441,1.764Q7.6-12.39,7.6-8.19t.021,5.166a1.78,1.78,0,0,0,.483,1.365,2.007,2.007,0,0,0,.861.483q.4.084,1.659.252a.528.528,0,0,1,.5.567q0,.483-.5.483Z" transform="translate(271.95 705.052)" fill="#333"/></g></svg>