<svg xmlns="http://www.w3.org/2000/svg" width="90" height="90" viewBox="0 0 90 90"><g transform="translate(-233 -652)"><g transform="translate(233 652)" fill="#fff" stroke="#333" stroke-width="3"><circle cx="45" cy="45" r="45" stroke="none"/><circle cx="45" cy="45" r="43.5" fill="none"/></g><g transform="translate(239 658)" fill="#fff" stroke="#333" stroke-width="1"><circle cx="39" cy="39" r="39" stroke="none"/><circle cx="39" cy="39" r="38.5" fill="none"/></g><path d="M1.512-13.1q0-.882,1.974-2.562a6.244,6.244,0,0,1,4.074-1.68,4.6,4.6,0,0,1,3.339,1.2,3.858,3.858,0,0,1,1.239,2.877q0,3.99-3.948,6.258-.21.168.042.252a5.1,5.1,0,0,1,3.906,1.449A4.532,4.532,0,0,1,13.4-2.226Q13.4,3.7,6.51,7.1a6.894,6.894,0,0,1-2.9.882q-1.134,0-1.134-.588a1.307,1.307,0,0,1,.378-.819,1.038,1.038,0,0,1,.756-.441,6.607,6.607,0,0,0,2.814-.42A8.05,8.05,0,0,0,9.261,3.381a7.1,7.1,0,0,0,.945-4.1,6.013,6.013,0,0,0-.231-1.68A3.386,3.386,0,0,0,8.883-3.948,3.344,3.344,0,0,0,6.594-4.7a3.664,3.664,0,0,0-1.806.42,8.213,8.213,0,0,1-.8.42q-.714,0-.714-.378a1.287,1.287,0,0,1,.441-.714A7.279,7.279,0,0,1,5.166-6.027,18.375,18.375,0,0,0,7.686-7.98,5.459,5.459,0,0,0,9.2-12.264a2.786,2.786,0,0,0-.735-2,2.615,2.615,0,0,0-2-.777,4.136,4.136,0,0,0-2.121.5,6.04,6.04,0,0,0-1.491,1.218q-.63.714-1.05.714Q1.512-12.6,1.512-13.1Z" transform="translate(270.488 701.346)" fill="#333"/></g></svg>